# xmcd CD database file
#
# Track frame offsets:
#	150
#	13222
#	25835
#	40695
#	56355
#	96462
#	131930
#	148830
#	182352
#	206877
#	224362
#	247162
#	270657
#	286567
#
# Disc length: 4031 seconds
#
# Revision: 10
# Processed by: cddbd v1.5.2PL0 Copyright (c) Steve Scherf et al.
# Submitted via: CDex 1.77
#
DISCID=d60fbd0e,d70fba0e
DTITLE=Curtis Mayfield and the Impressions - The Anthology 1961-1977 [CD 2)
DYEAR=1972
DGENRE=R&B
TTITLE0=Fool For You
TTITLE1=This Is My Country
TTITLE2=Choice Of Colors
TTITLE3=Check Out Your Mind
TTITLE4=Move On Up
TTITLE5=(Don't Worry) If There's A Hell Below, We're All Going To Go
TTITLE6=The Makings Of You
TTITLE7=Beautiful Brother Of Mine
TTITLE8=Freddie's Dead
TTITLE9=Superfly
TTITLE10=Pusherman
TTITLE11=So In Love
TTITLE12=Only You Babe (single edit)
TTITLE13=Do Do Wap Is Strong In Here (single edit)
EXTD=YEAR: 1972
EXTT0=
EXTT1=
EXTT2=
EXTT3=
EXTT4=
EXTT5=
EXTT6=
EXTT7=
EXTT8=
EXTT9=
EXTT10=
EXTT11=
EXTT12=
EXTT13=
PLAYORDER=
